<svg viewBox="0 0 342.85155851775386 342.85155851775386" height="342.85155851775386" width="342.85155851775386" data-background-color="#046380" preserveAspectRatio="xMidYMid meet" id="tight-bounds" xmlns="http://www.w3.org/2000/svg" xmlns:xlink="http://www.w3.org/1999/xlink"><g><svg></svg></g><g><svg viewBox="0 0 342.85155851775386 342.85155851775386" height="342.85155851775386" width="342.85155851775386"><g><path d="M0 171.426c0-94.676 76.75-171.426 171.426-171.426 94.676 0 171.426 76.75 171.426 171.426 0 94.676-76.75 171.426-171.426 171.426-94.676 0-171.426-76.75-171.426-171.426zM171.426 333.925c89.746 0 162.499-72.753 162.499-162.499 0-89.746-72.753-162.499-162.499-162.499-89.746 0-162.499 72.753-162.499 162.499 0 89.746 72.753 162.499 162.499 162.499z" data-fill-palette-color="tertiary" fill="#ffffff" stroke="transparent"></path><ellipse rx="164.56874808852186" ry="164.56874808852186" cx="171.42577925887693" cy="171.42577925887693" fill="#ffffff" stroke="transparent" stroke-width="0" fill-opacity="1" data-fill-palette-color="tertiary"></ellipse></g><g transform="matrix(1,0,0,1,64.84655864529837,121.93321735232571)"><svg viewBox="0 0 213.1584412271571 98.98512381310243" height="98.98512381310243" width="213.1584412271571"><g><svg viewBox="0 0 213.1584412271571 98.98512381310243" height="98.98512381310243" width="213.1584412271571"><g><svg viewBox="0 0 213.1584412271571 98.98512381310243" height="98.98512381310243" width="213.1584412271571"><g><svg viewBox="0 0 213.1584412271571 98.98512381310243" height="98.98512381310243" width="213.1584412271571"><g id="textblocktransform"><svg viewBox="0 0 213.1584412271571 98.98512381310243" height="98.98512381310243" width="213.1584412271571" id="textblock"><g><svg viewBox="0 0 213.1584412271571 98.98512381310243" height="98.98512381310243" width="213.1584412271571"><g transform="matrix(1,0,0,1,0,0)"><svg width="213.1584412271571" viewBox="0.9000000357627869 -37.5 81.38999938964844 37.79999923706055" height="98.98512381310243" data-palette-color="#046380"><path d="M17.85-37.4L17.85 0 10.65 0 10.65-33.9Q8.25-32.75 6.95-30.63 5.65-28.5 5.65-25.5L5.65-25.5Q5.65-23.95 5.88-22.95 6.1-21.95 6.38-21.33 6.65-20.7 6.95-20.33 7.25-19.95 7.4-19.65L7.4-19.65Q4.4-19.65 2.65-21.03 0.9-22.4 0.9-25.7L0.9-25.7Q0.9-28.1 2.15-30.23 3.4-32.35 5.48-33.98 7.55-35.6 10.23-36.55 12.9-37.5 15.75-37.5L15.75-37.5Q16.3-37.5 16.82-37.48 17.35-37.45 17.85-37.4L17.85-37.4ZM22.5-31.9L29.7-32.9 29.7-25 32.75-25 32.75-23 29.7-23 29.7-8Q29.7-5.9 30.27-5.23 30.85-4.55 32.3-4.55L32.3-4.55Q33.75-4.55 34.72-5.8 35.7-7.05 35.85-8.95L35.85-8.95 37.95-8.95Q37.55-5.9 36.55-4.08 35.55-2.25 34.3-1.28 33.05-0.3 31.75 0 30.45 0.3 29.45 0.3L29.45 0.3Q25.6 0.3 24.05-1.83 22.5-3.95 22.5-7.45L22.5-7.45 22.5-23 20.9-23 20.9-25 22.5-25 22.5-31.9ZM54.95-8.95L57.05-8.95Q55.5-6.6 53.75-5.1 52-3.6 50.5-2.55L50.5-2.55Q49.2-1 47.25-0.35 45.3 0.3 43.5 0.3L43.5 0.3Q41.3 0.3 39.65-0.4 38-1.1 36.9-2.18 35.8-3.25 35.25-4.58 34.7-5.9 34.7-7.1L34.7-7.1Q34.7-8.45 35.22-9.4 35.75-10.35 36.55-10.75L36.55-10.75Q38-14.5 38.97-18.18 39.95-21.85 40.35-25.55L40.35-25.55 47.55-26.55Q48.8-21.7 49.65-18.68 50.5-15.65 51-13.63 51.5-11.6 51.7-10.1 51.9-8.6 51.9-6.75L51.9-6.75 51.9-6.45Q53.7-7.7 54.95-8.95L54.95-8.95ZM40.5-8.5L40.5-8.5Q40.5-7.75 40.05-7.13 39.6-6.5 38.75-6.5L38.75-6.5Q38.35-6.5 37.92-6.63 37.5-6.75 37.25-7.15L37.25-7.15Q37.65-5.4 38.52-4.53 39.4-3.65 41.05-3.65L41.05-3.65Q42.5-3.65 43.55-4.42 44.6-5.2 44.6-7.15L44.6-7.15Q44.6-8.5 44.45-9.58 44.3-10.65 43.97-12 43.65-13.35 43.12-15.2 42.6-17.05 41.85-19.85L41.85-19.85Q41.35-17.45 40.62-15.23 39.9-13 39.1-10.6L39.1-10.6Q39.65-10.35 40.07-9.83 40.5-9.3 40.5-8.5ZM67.64-15.15L67.64-15.15Q67.64-18.15 66.99-19.4 66.34-20.65 65.09-20.65L65.09-20.65Q64.34-20.65 63.82-20.25 63.29-19.85 62.94-19.2 62.59-18.55 62.39-17.73 62.19-16.9 62.14-16.05L62.14-16.05 62.14 0 54.94 0 54.94-34 62.14-35 62.14-22.4Q63.29-24.15 64.74-24.68 66.19-25.2 67.49-25.2L67.49-25.2Q68.89-25.2 70.17-24.75 71.44-24.3 72.42-23.23 73.39-22.15 73.94-20.38 74.49-18.6 74.49-16L74.49-16Q74.49-15.35 74.47-14.38 74.44-13.4 74.39-12.4 74.34-11.4 74.32-10.45 74.29-9.5 74.29-8.85L74.29-8.85Q74.29-6.7 74.82-5.63 75.34-4.55 76.89-4.55L76.89-4.55Q77.74-4.55 78.29-4.88 78.84-5.2 79.19-5.8 79.54-6.4 79.77-7.2 79.99-8 80.19-8.95L80.19-8.95 82.29-8.95Q81.89-5.95 81.09-4.13 80.29-2.3 79.27-1.33 78.24-0.35 77.09-0.03 75.94 0.3 74.84 0.3L74.84 0.3Q70.99 0.3 69.27-2.25 67.54-4.8 67.54-9.05L67.54-9.05Q67.54-9.5 67.57-10.33 67.59-11.15 67.59-12.05 67.59-12.95 67.62-13.8 67.64-14.65 67.64-15.15Z" opacity="1" transform="matrix(1,0,0,1,0,0)" fill="#046380" class="wordmark-text-0" data-fill-palette-color="quaternary" id="text-0"></path></svg></g></svg></g></svg></g></svg></g><g></g></svg></g></svg></g></svg></g></svg></g><defs></defs></svg>